<svg width="198" height="198" viewBox="0 0 198 198" fill="none" xmlns="http://www.w3.org/2000/svg">
<path d="M0 92.905H48.024C47.203 127.905 37.276 131.878 24.808 133.012L20 133.608V172.094L25.542 171.797C41.823 170.881 59.823 167.946 71.832 153.121C82.359 140.125 87 118.893 87 86.3V25.905H0V92.905Z" fill="#ED5B43"/>
<path d="M111 25.905V92.905H158.383C157.562 127.905 147.956 131.878 135.488 133.012L131 133.608V172.094L136.222 171.797C152.503 170.881 170.664 167.946 182.673 153.121C193.199 140.125 198 118.893 198 86.3V25.905H111Z" fill="#ED5B43"/>
</svg>
