<svg width="745" height="543" viewBox="0 0 745 543" fill="none" xmlns="http://www.w3.org/2000/svg">
<g clip-path="url(#clip0)">
<path d="M704.81 451.082C703.999 481.369 698.926 511.39 689.74 540.262C689.53 540.932 689.31 541.592 689.09 542.262H632.85C632.91 541.662 632.97 540.992 633.03 540.262C636.78 497.152 658.4 234.772 632.55 189.902C634.81 193.542 709.17 314.102 704.81 451.082Z" fill="#E6E6E6"/>
<path d="M700.59 540.262C700.12 540.932 699.63 541.602 699.13 542.262H656.94C657.26 541.692 657.63 541.022 658.06 540.262C665.03 527.682 685.66 490.072 704.81 451.082C725.39 409.182 744.27 365.692 742.68 349.952C743.17 353.502 757.41 461.722 700.59 540.262Z" fill="#E6E6E6"/>
<path d="M55.3522 497.055C55.7503 511.925 58.2411 526.665 62.7512 540.84C62.8543 541.169 62.9624 541.493 63.0704 541.822H90.6828C90.6534 541.527 90.6239 541.198 90.5944 540.84C88.7533 519.674 78.1384 390.852 90.8301 368.822C89.7205 370.609 53.2116 429.801 55.3522 497.055Z" fill="#E6E6E6"/>
<path d="M57.4241 540.84C57.6549 541.169 57.8955 541.498 58.141 541.822H78.8552C78.6981 541.542 78.5164 541.213 78.3053 540.84C74.8832 534.663 64.7544 516.198 55.3522 497.055C45.2479 476.483 35.9783 455.13 36.759 447.402C36.5184 449.145 29.5269 502.279 57.4241 540.84Z" fill="#E6E6E6"/>
<path d="M583.587 542.184H295.319C293.904 542.182 292.547 541.619 291.546 540.618C290.545 539.617 289.982 538.261 289.981 536.845V465.338C289.982 463.923 290.545 462.566 291.546 461.565C292.547 460.565 293.904 460.002 295.319 460H583.587C585.002 460.002 586.359 460.565 587.36 461.565C588.361 462.566 588.924 463.923 588.925 465.338V536.845C588.924 538.261 588.361 539.617 587.36 540.618C586.359 541.619 585.002 542.182 583.587 542.184V542.184ZM295.319 462.135C294.47 462.136 293.656 462.474 293.055 463.074C292.455 463.675 292.117 464.489 292.116 465.338V536.845C292.117 537.694 292.455 538.509 293.055 539.109C293.656 539.71 294.47 540.047 295.319 540.048H583.587C584.436 540.047 585.25 539.71 585.851 539.109C586.451 538.509 586.789 537.694 586.79 536.845V465.338C586.789 464.489 586.451 463.675 585.851 463.074C585.25 462.474 584.436 462.136 583.587 462.135H295.319Z" fill="#E6E6E6"/>
<path d="M340.11 520.093C352.12 520.093 361.855 510.358 361.855 498.348C361.855 486.338 352.12 476.603 340.11 476.603C328.1 476.603 318.365 486.338 318.365 498.348C318.365 510.358 328.1 520.093 340.11 520.093Z" fill="#E6E6E6"/>
<path d="M390.331 483.851C389.371 483.853 388.451 484.235 387.773 484.915C387.094 485.594 386.713 486.515 386.713 487.475C386.713 488.436 387.094 489.356 387.773 490.036C388.451 490.715 389.371 491.098 390.331 491.1H561.188C562.149 491.1 563.071 490.718 563.75 490.038C564.43 489.358 564.812 488.437 564.812 487.475C564.812 486.514 564.43 485.592 563.75 484.913C563.071 484.233 562.149 483.851 561.188 483.851H390.331Z" fill="#E6E6E6"/>
<path d="M390.331 505.596C389.37 505.596 388.448 505.978 387.769 506.658C387.089 507.338 386.707 508.259 386.707 509.221C386.707 510.182 387.089 511.104 387.769 511.783C388.448 512.463 389.37 512.845 390.331 512.845H463.852C464.813 512.845 465.735 512.463 466.414 511.783C467.094 511.104 467.476 510.182 467.476 509.221C467.476 508.259 467.094 507.338 466.414 506.658C465.735 505.978 464.813 505.596 463.852 505.596H390.331Z" fill="#E6E6E6"/>
<path d="M655.587 436.184H367.319C365.904 436.182 364.547 435.619 363.546 434.618C362.545 433.617 361.982 432.261 361.981 430.845V359.338C361.982 357.923 362.545 356.566 363.546 355.565C364.547 354.565 365.904 354.002 367.319 354H655.587C657.002 354.002 658.359 354.565 659.36 355.565C660.361 356.566 660.924 357.923 660.925 359.338V430.845C660.924 432.261 660.361 433.617 659.36 434.618C658.359 435.619 657.002 436.182 655.587 436.184V436.184ZM367.319 356.135C366.47 356.136 365.656 356.474 365.055 357.074C364.455 357.675 364.117 358.489 364.116 359.338V430.845C364.117 431.694 364.455 432.509 365.055 433.109C365.656 433.71 366.47 434.047 367.319 434.048H655.587C656.436 434.047 657.25 433.71 657.851 433.109C658.451 432.509 658.789 431.694 658.79 430.845V359.338C658.789 358.489 658.451 357.675 657.851 357.074C657.25 356.474 656.436 356.136 655.587 356.135H367.319Z" fill="#E6E6E6"/>
<path d="M412.11 414.093C424.12 414.093 433.855 404.358 433.855 392.348C433.855 380.338 424.12 370.603 412.11 370.603C400.1 370.603 390.365 380.338 390.365 392.348C390.365 404.358 400.1 414.093 412.11 414.093Z" fill="#E6E6E6"/>
<path d="M462.331 377.851C461.371 377.853 460.451 378.235 459.773 378.915C459.094 379.594 458.713 380.515 458.713 381.475C458.713 382.436 459.094 383.356 459.773 384.036C460.451 384.715 461.371 385.098 462.331 385.1H633.188C634.149 385.1 635.071 384.718 635.75 384.038C636.43 383.358 636.812 382.437 636.812 381.475C636.812 380.514 636.43 379.592 635.75 378.913C635.071 378.233 634.149 377.851 633.188 377.851H462.331Z" fill="#E6E6E6"/>
<path d="M462.331 399.596C461.37 399.596 460.448 399.978 459.769 400.658C459.089 401.338 458.707 402.259 458.707 403.221C458.707 404.182 459.089 405.104 459.769 405.783C460.448 406.463 461.37 406.845 462.331 406.845H535.852C536.813 406.845 537.735 406.463 538.414 405.783C539.094 405.104 539.476 404.182 539.476 403.221C539.476 402.259 539.094 401.338 538.414 400.658C537.735 399.978 536.813 399.596 535.852 399.596H462.331Z" fill="#E6E6E6"/>
<path d="M599.587 257.184H311.319C309.904 257.182 308.547 256.619 307.546 255.618C306.545 254.617 305.982 253.261 305.981 251.845V5.33829C305.982 3.923 306.545 2.56614 307.546 1.56538C308.547 0.564623 309.904 0.00166467 311.319 0H599.587C601.002 0.00166467 602.359 0.564623 603.36 1.56538C604.361 2.56614 604.924 3.923 604.925 5.33829V251.845C604.924 253.261 604.361 254.617 603.36 255.618C602.359 256.619 601.002 257.182 599.587 257.184V257.184ZM311.319 2.13531C310.47 2.13623 309.656 2.47398 309.055 3.07446C308.455 3.67494 308.117 4.4891 308.116 5.3383V251.845C308.117 252.694 308.455 253.509 309.055 254.109C309.656 254.71 310.47 255.047 311.319 255.048H599.587C600.436 255.047 601.25 254.71 601.851 254.109C602.451 253.509 602.789 252.694 602.79 251.845V5.33829C602.789 4.48908 602.451 3.67491 601.851 3.07443C601.25 2.47395 600.436 2.1362 599.587 2.13528L311.319 2.13531Z" fill="#E6E6E6"/>
<path d="M356.11 235.093C368.12 235.093 377.855 225.358 377.855 213.348C377.855 201.338 368.12 191.603 356.11 191.603C344.1 191.603 334.365 201.338 334.365 213.348C334.365 225.358 344.1 235.093 356.11 235.093Z" fill="#E6E6E6"/>
<path d="M406.331 198.851C405.37 198.851 404.448 199.233 403.769 199.913C403.089 200.592 402.707 201.514 402.707 202.475C402.707 203.437 403.089 204.358 403.769 205.038C404.448 205.718 405.37 206.1 406.331 206.1H577.188C578.149 206.1 579.071 205.718 579.75 205.038C580.43 204.358 580.812 203.437 580.812 202.475C580.812 201.514 580.43 200.592 579.75 199.913C579.071 199.233 578.149 198.851 577.188 198.851H406.331Z" fill="#E6E6E6"/>
<path d="M406.331 220.596C405.37 220.596 404.448 220.978 403.769 221.658C403.089 222.338 402.707 223.26 402.707 224.221C402.707 225.182 403.089 226.104 403.769 226.783C404.448 227.463 405.37 227.845 406.331 227.845H479.852C480.813 227.845 481.735 227.463 482.414 226.783C483.094 226.104 483.476 225.182 483.476 224.221C483.476 223.26 483.094 222.338 482.414 221.658C481.735 220.978 480.813 220.596 479.852 220.596H406.331Z" fill="#E6E6E6"/>
<path d="M127.346 282.793L130.524 308.094C130.783 310.154 131.52 312.124 132.677 313.848C133.834 315.572 135.378 317.001 137.186 318.021C138.994 319.041 141.016 319.623 143.089 319.722C145.163 319.821 147.231 319.433 149.127 318.589V318.589C150.809 317.84 152.318 316.751 153.557 315.39C154.796 314.028 155.739 312.424 156.327 310.68C156.914 308.935 157.133 307.087 156.969 305.253C156.805 303.42 156.263 301.64 155.376 300.027L142.012 275.728L137.643 171.259L109.384 177.849L127.346 282.793Z" fill="#FFB8B8"/>
<path d="M233.19 517.322L211.19 519.322L198.19 338.322L197.69 384.822L149.69 512.822L130.69 497.822L162.19 370.322L147.19 299.322H245.19L233.19 517.322Z" fill="#2F2E41"/>
<path d="M255.006 541.783L214.108 540.784C212.442 540.907 210.769 540.65 209.216 540.035C207.662 539.419 206.268 538.46 205.137 537.23C204.006 535.999 203.169 534.529 202.687 532.929C202.204 531.329 202.091 529.64 202.353 527.99L204.029 517.46C204.349 515.451 205.339 513.609 206.838 512.235C208.337 510.86 210.257 510.033 212.286 509.888V509.888C219.266 517.112 226.486 516.045 233.898 508.342L250.757 525.445L253.275 525.107C255.266 524.839 257.288 525.295 258.971 526.392C260.655 527.489 261.888 529.155 262.448 531.085C262.795 532.284 262.87 533.546 262.668 534.779C262.465 536.011 261.99 537.183 261.277 538.208C260.564 539.233 259.631 540.086 258.546 540.705C257.461 541.323 256.251 541.692 255.006 541.783V541.783Z" fill="#2F2E41"/>
<path d="M161.851 540.43L120.837 524.956C119.165 524.325 117.658 523.325 116.428 522.03C115.198 520.734 114.277 519.177 113.733 517.476C113.19 515.774 113.039 513.971 113.29 512.203C113.542 510.434 114.19 508.746 115.187 507.263L121.547 497.804C122.76 495.999 124.548 494.658 126.619 493.999C128.691 493.339 130.926 493.4 132.958 494.171V494.171C136.48 504.316 143.962 506.526 154.614 502.388L165.075 522.675L167.668 523.478C169.72 524.114 171.476 525.465 172.615 527.286C173.755 529.107 174.203 531.277 173.877 533.4C173.675 534.72 173.181 535.977 172.43 537.082C171.68 538.186 170.693 539.108 169.54 539.782C168.387 540.456 167.099 540.864 165.769 540.976C164.438 541.088 163.1 540.902 161.851 540.43Z" fill="#2F2E41"/>
<path d="M198.19 73.3218C212.549 73.3218 224.19 61.6812 224.19 47.3218C224.19 32.9624 212.549 21.3218 198.19 21.3218C183.831 21.3218 172.19 32.9624 172.19 47.3218C172.19 61.6812 183.831 73.3218 198.19 73.3218Z" fill="#FFB8B8"/>
<path d="M201.19 95.3218L156.19 94.3218C168.555 80.6416 176.066 66.3705 177.19 51.3218H201.19V95.3218Z" fill="#FFB8B8"/>
<path d="M248.19 313.322C205.712 302.423 165.856 295.077 141.19 308.322C145.51 262.91 140.513 204.943 125.691 144.357C120.876 124.678 124.142 106.946 141.69 96.8218L165.19 83.3218L201.19 84.3218L219.973 94.7133C229.158 99.3029 236.594 106.765 241.152 115.965C245.71 125.166 247.141 135.603 245.227 145.69C235.135 198.798 240.588 256.116 248.19 313.322Z" fill="#EF533A"/>
<path d="M257.19 281.322L260.714 306.576C261.001 308.632 260.802 310.727 260.135 312.693C259.467 314.658 258.348 316.44 256.869 317.896C255.389 319.352 253.589 320.441 251.612 321.077C249.636 321.712 247.539 321.876 245.488 321.556V321.556C243.669 321.272 241.929 320.613 240.377 319.621C238.826 318.63 237.498 317.327 236.476 315.796C235.455 314.264 234.762 312.537 234.442 310.724C234.123 308.911 234.183 307.051 234.619 305.263L241.19 278.322L218.19 176.322L247.19 175.322L257.19 281.322Z" fill="#FFB8B8"/>
<path d="M151.19 186.322L104.19 183.322C107.862 137.086 118.312 111.81 134.19 103.322L151.19 123.322V186.322Z" fill="#EF533A"/>
<path d="M216.19 38.3218C207.03 35.3913 202.276 54.174 188.69 65.8218C185.602 68.4695 177.896 58.1456 175.19 61.3218L170.815 48.0051C165.624 32.2055 174.978 14.9817 191.242 11.5101C191.674 11.418 192.109 11.3353 192.549 11.262C199.642 10.0802 206.922 11.5615 212.99 15.4212C219.057 19.281 223.485 25.2469 225.421 32.1726C225.553 32.6773 225.582 33.2036 225.505 33.7197C225.429 34.2357 225.248 34.7309 224.974 35.1752C224.701 35.6196 224.34 36.0038 223.914 36.3047C223.488 36.6056 223.005 36.8169 222.495 36.9259L216.19 38.3218Z" fill="#2F2E41"/>
<path d="M257.19 177.322L213.19 187.322L211.19 115.322L236.19 116.322L257.19 177.322Z" fill="#EF533A"/>
<path d="M738.22 540.262H0V542.262H738.22V540.262Z" fill="#3F3D56"/>
<path d="M668.076 171.205H379.808C378.393 171.203 377.036 170.64 376.035 169.639C375.034 168.639 374.471 167.282 374.47 165.867V39.3596C374.471 37.9444 375.034 36.5875 376.035 35.5867C377.036 34.586 378.393 34.023 379.808 34.0214H668.076C669.491 34.023 670.848 34.586 671.849 35.5867C672.85 36.5875 673.413 37.9444 673.414 39.3596V165.867C673.413 167.282 672.85 168.639 671.849 169.639C670.848 170.64 669.491 171.203 668.076 171.205Z" fill="#6C63FF"/>
<path d="M438.514 78.1162C438.037 78.1154 437.565 78.2086 437.125 78.3904C436.685 78.5722 436.284 78.839 435.947 79.1756C435.61 79.5122 435.343 79.912 435.16 80.3521C434.978 80.7922 434.884 81.264 434.884 81.7405C434.884 82.2169 434.978 82.6887 435.16 83.1288C435.343 83.5689 435.61 83.9687 435.947 84.3053C436.284 84.6419 436.685 84.9087 437.125 85.0905C437.565 85.2723 438.037 85.3655 438.514 85.3647H609.37C610.331 85.3647 611.253 84.9828 611.933 84.3032C612.613 83.6235 612.994 82.7017 612.994 81.7405C612.994 80.7792 612.613 79.8574 611.933 79.1777C611.253 78.4981 610.331 78.1162 609.37 78.1162H438.514Z" fill="white"/>
<path d="M438.514 99.1162C438.037 99.1154 437.565 99.2086 437.125 99.3904C436.685 99.5722 436.284 99.839 435.947 100.176C435.61 100.512 435.343 100.912 435.16 101.352C434.978 101.792 434.884 102.264 434.884 102.74C434.884 103.217 434.978 103.689 435.16 104.129C435.343 104.569 435.61 104.969 435.947 105.305C436.284 105.642 436.685 105.909 437.125 106.091C437.565 106.272 438.037 106.365 438.514 106.365H609.37C610.331 106.365 611.253 105.983 611.933 105.303C612.613 104.623 612.994 103.702 612.994 102.74C612.994 101.779 612.613 100.857 611.933 100.178C611.253 99.4981 610.331 99.1162 609.37 99.1162H438.514Z" fill="white"/>
<path d="M438.514 119.862C437.553 119.862 436.631 120.243 435.951 120.923C435.271 121.603 434.89 122.525 434.89 123.486C434.89 124.447 435.271 125.369 435.951 126.048C436.631 126.728 437.553 127.11 438.514 127.11H512.034C512.995 127.11 513.917 126.728 514.597 126.048C515.276 125.369 515.658 124.447 515.658 123.486C515.658 122.525 515.276 121.603 514.597 120.923C513.917 120.243 512.995 119.862 512.034 119.862H438.514Z" fill="white"/>
</g>
<defs>
<clipPath id="clip0">
<rect width="744.615" height="542.262" fill="white"/>
</clipPath>
</defs>
</svg>
